<svg class="map-dach-svg" xmlns="http://www.w3.org/2000/svg" viewBox="0 0 520 620" role="group" aria-label="Karte DACH-Raum mit Einsatzorten">
  <title>Einsatzgebiet Doris Gunsch</title>
  <g class="map-countries" aria-hidden="true">
    <path class="map-country" d="M199.35,464.49L202.63,454.26L199.24,451.28L203.45,451.20L206.72,448.61L214.13,452.27L217.07,455.20L217.28,458.10L220.36,459.10L221.26,462.07L223.08,463.80L227.36,459.53L229.40,450.41L231.14,450.37L239.75,451.29L244.05,452.50L246.76,456.37L249.75,458.12L254.72,456.44L258.27,456.46L261.43,453.21L267.45,449.95L287.81,446.32L288.18,441.65L290.56,441.98L296.13,443.89L299.15,445.45L304.45,443.72L308.13,446.97L307.68,449.20L310.88,452.21L315.39,453.69L316.50,448.42L316.03,442.19L312.52,441.45L311.86,439.73L313.36,432.19L306.92,422.52L308.73,418.10L317.64,412.15L322.07,410.75L327.37,407.65L330.21,397.06L331.10,396.16L337.94,398.72L341.04,395.87L341.44,390.71L342.02,386.51L345.67,388.54L349.82,395.08L360.42,396.45L364.45,393.88L371.19,395.25L374.34,387.53L378.89,386.28L380.54,375.20L383.69,374.48L386.84,377.16L389.87,376.25L394.87,376.59L404.78,381.64L408.92,381.43L422.04,387.95L428.54,386.24L432.83,384.98L438.46,388.22L442.47,389.25L445.63,394.12L446.31,395.81L444.84,400.24L443.54,406.32L450.28,422.15L452.92,426.17L450.60,431.65L449.02,434.97L449.53,438.80L447.13,442.37L442.13,442.43L439.62,442.84L434.40,439.49L432.08,440.85L428.76,443.45L436.03,446.87L435.92,453.76L433.85,456.47L429.48,457.78L430.13,464.37L428.61,466.96L430.81,471.29L430.87,473.85L430.09,477.44L428.85,478.76L423.14,480.07L415.98,486.69L414.09,493.94L413.33,495.41L406.76,493.68L399.61,496.61L388.68,497.21L379.78,498.76L376.16,500.47L373.37,504.71L368.05,508.00L366.48,509.89L363.69,509.04L357.08,507.76L348.84,505.60L342.57,504.08L338.20,503.61L326.61,501.65L308.44,498.11L301.55,496.63L294.55,494.10L290.55,487.16L285.98,479.40L288.33,475.43L287.27,474.33L274.17,479.33L269.17,478.78L262.77,479.49L252.81,481.93L249.19,489.19L245.94,490.62L240.36,489.38L234.37,486.23L230.14,485.65L228.88,480.46L221.06,485.78L214.97,484.58L210.57,479.86L206.59,476.67L201.11,475.62L202.12,473.02L200.83,470.38L200.14,467.54L199.66,465.33Z"/>
    <path class="map-country" d="M199.24,451.28L202.63,454.26L199.35,464.49L197.75,473.52L198.51,475.34L202.43,475.61L209.93,478.22L211.01,481.85L219.52,486.35L226.70,479.40L230.20,483.85L228.59,492.43L229.66,498.47L229.41,502.06L224.14,501.29L219.65,498.71L217.11,502.23L216.59,507.38L218.73,511.82L219.91,517.51L217.76,518.84L214.13,513.65L211.23,511.56L203.08,515.30L199.39,514.77L196.46,508.27L195.09,505.67L190.46,505.96L190.15,515.78L184.16,525.39L181.90,529.95L182.44,534.47L182.59,538.77L178.61,537.92L174.41,530.93L175.76,526.71L167.34,522.40L163.11,515.98L163.06,508.22L160.86,507.53L156.24,512.94L151.23,517.38L152.69,522.34L148.29,529.90L141.46,534.80L133.17,531.86L126.16,535.30L117.10,535.74L115.37,532.87L111.82,528.03L108.78,523.92L109.15,516.38L107.50,511.48L107.19,509.06L96.24,508.29L89.78,513.39L89.61,514.65L88.60,520.66L82.19,523.31L80.97,519.54L85.16,516.16L86.07,510.99L84.23,506.83L86.28,501.17L91.46,495.13L96.24,487.35L97.15,481.30L104.16,477.22L109.28,470.10L114.53,462.86L115.26,460.91L112.63,459.78L114.19,454.98L119.77,453.07L120.82,454.96L124.09,456.41L129.22,454.88L131.71,450.08L138.47,448.90L151.64,448.58L159.43,446.97L162.83,447.74L164.42,446.67L167.51,445.36L166.90,444.25L162.27,444.07L163.02,440.49L167.58,438.18L172.76,442.12L174.15,441.60L176.18,441.93L177.84,444.39L187.88,443.65L199.24,451.28Z"/>
    <path class="map-country" d="M199.24,451.28L186.04,443.65L176.18,441.93L173.64,442.22L167.58,438.18L161.95,442.76L166.90,444.25L167.14,446.08L162.83,447.74L155.12,446.97L138.47,448.90L132.86,443.48L135.49,426.35L138.73,411.89L143.13,393.33L153.19,380.28L148.56,373.79L132.73,369.86L125.67,367.61L117.43,367.86L115.29,364.99L110.24,363.84L106.44,365.99L100.81,356.32L94.69,350.48L94.56,343.11L98.10,337.47L96.64,332.39L88.78,326.67L85.57,317.33L87.79,310.12L93.31,298.70L87.91,295.01L87.11,289.03L81.76,283.13L80.47,271.53L77.23,268.55L80.67,267.17L85.74,261.02L84.49,258.44L88.58,246.67L85.00,238.90L80.25,230.38L84.96,225.61L91.85,225.78L96.11,225.38L107.76,221.22L105.78,216.11L106.89,212.86L114.49,207.29L116.41,198.18L112.65,195.05L105.36,191.98L105.88,188.10L106.87,184.95L116.94,179.18L121.56,165.90L120.30,148.84L118.81,136.85L136.18,129.54L152.13,141.50L157.81,139.24L163.54,137.12L166.44,136.85L167.67,122.18L188.64,121.27L204.20,136.40L192.18,121.10L181.07,117.60L178.69,100.16L173.01,98.37L170.09,93.03L180.37,85.70L171.23,72.49L177.05,66.79L190.28,71.64L202.29,69.17L206.42,70.73L213.54,75.28L213.12,86.93L220.76,90.29L239.42,97.27L250.49,99.14L243.51,113.25L261.65,116.64L274.85,106.18L291.49,98.97L307.56,90.53L319.81,99.02L342.27,112.77L349.02,125.88L357.04,129.02L361.98,151.10L360.45,160.38L352.81,169.38L365.29,184.35L366.64,199.25L370.81,204.97L371.63,212.26L372.30,216.39L368.21,226.74L372.31,235.63L372.30,242.82L379.90,250.46L378.72,269.67L374.72,278.34L370.09,278.85L367.99,274.36L365.07,269.61L357.61,268.58L358.15,272.59L354.90,277.35L344.81,282.56L332.43,286.13L328.26,290.48L325.09,291.68L320.94,295.63L313.80,300.55L307.10,299.78L299.90,301.74L291.80,311.52L287.45,307.21L284.62,306.51L287.45,313.08L290.83,320.04L298.67,327.67L297.33,331.10L295.21,337.19L300.12,344.40L306.52,355.28L315.70,360.81L324.52,369.28L328.26,375.53L337.70,380.79L341.63,387.52L341.04,395.87L337.38,399.22L330.21,397.06L325.65,409.22L317.64,412.15L306.93,420.91L313.36,432.19L311.50,440.98L316.03,442.19L315.96,452.13L310.88,452.21L307.62,447.83L304.45,443.72L297.70,445.39L290.56,441.98L288.41,444.90L267.45,449.95L260.80,454.62L254.72,456.44L247.72,457.85L244.05,452.50L237.00,450.08L229.40,450.41L225.48,462.27L221.26,462.07L218.29,458.82L217.07,455.20L209.72,449.82L203.45,451.20Z"/>
    <path class="map-country" d="M338.51,93.81L334.70,96.13L327.03,100.94L320.11,93.07L322.61,83.38L328.98,77.31L336.07,83.68L334.98,88.31L338.51,93.81Z"/>
    <path class="map-country" d="M355.22,116.35L353.91,120.31L344.93,116.94L342.43,110.65L349.48,111.96Z"/>
    <path class="map-country" d="M257.76,91.97L248.74,89.46L256.13,87.63Z"/>
    <path class="map-country" d="M158.76,72.74L162.00,58.57L161.51,62.35L169.47,67.28L158.76,72.74Z"/>
    <path class="map-country" d="M168.08,76.61L161.84,76.54L165.49,74.13Z"/>
  </g>
  <g class="map-cities" role="list">
    <a class="map-city map-city--link" data-slug="osnabrueck" href="standorte/osnabrueck" role="listitem" aria-label="Osnabrück — Büro Newtonstraße 3 — Coachings und Beratung vor Ort">
    <circle class="map-ring map-ring--home" cx="150.09" cy="203.41" r="10"/>
    <circle class="map-ring map-ring--soft" cx="150.09" cy="203.41" r="16"/>
    <circle class="map-dot map-dot--home" cx="150.09" cy="203.41" r="4.5"/>
    <text class="map-label map-label--home" x="150.09" y="231.41" text-anchor="middle">Osnabrück</text>
    <circle class="map-city-hit" cx="150.09" cy="203.41" r="15"/>
    </a>
    <a class="map-city map-city--link" data-slug="hamburg" href="standorte/hamburg" role="listitem" aria-label="Hamburg — Konzerne, Häfen, viele Schnittstellen und hohe Sichtbarkeit">
    <circle class="map-ring" cx="214.87" cy="137.15" r="8"/>
    <circle class="map-dot" cx="214.87" cy="137.15" r="3.5"/>
    <text class="map-label" x="224.87" y="135.15" text-anchor="start">Hamburg</text>
    <circle class="map-city-hit" cx="214.87" cy="137.15" r="15"/>
    </a>
    <a class="map-city map-city--link" data-slug="berlin" href="standorte/berlin" role="listitem" aria-label="Berlin — Verbände, Transformation, institutionelle und politische Nähe">
    <circle class="map-ring" cx="328.38" cy="190.9" r="8"/>
    <circle class="map-dot" cx="328.38" cy="190.9" r="3.5"/>
    <text class="map-label" x="318.38" y="190.9" text-anchor="end">Berlin</text>
    <circle class="map-city-hit" cx="328.38" cy="190.9" r="15"/>
    </a>
    <a class="map-city map-city--link" data-slug="hannover" href="standorte/hannover" role="listitem" aria-label="Hannover">
    <circle class="map-dot" cx="206.16" cy="198.41" r="3.5"/>
    <text class="map-label" x="216.16" y="198.41" text-anchor="start">Hannover</text>
    <circle class="map-city-hit" cx="206.16" cy="198.41" r="12"/>
    </a>
    <a class="map-city map-city--link" data-slug="bremen" href="standorte/bremen" role="listitem" aria-label="Bremen">
    <circle class="map-dot" cx="175.2" cy="161.75" r="3.5"/>
    <text class="map-label" x="165.2" y="161.75" text-anchor="end">Bremen</text>
    <circle class="map-city-hit" cx="175.2" cy="161.75" r="15"/>
    </a>
    <a class="map-city map-city--link" data-slug="oldenburg" href="standorte/oldenburg" role="listitem" aria-label="Oldenburg — Gesundheitswesen, Sozialwirtschaft und regionale Träger">
    <circle class="map-dot" cx="155.66" cy="158.4" r="3.5"/>
    <text class="map-label" x="145.66" y="150.4" text-anchor="end">Oldenburg</text>
    <circle class="map-city-hit" cx="155.66" cy="158.4" r="12"/>
    </a>
    <a class="map-city map-city--link" data-slug="duesseldorf" href="standorte/duesseldorf" role="listitem" aria-label="Düsseldorf">
    <circle class="map-dot" cx="107.71" cy="258.25" r="3.5"/>
    <text class="map-label" x="117.71" y="258.25" text-anchor="start">Düsseldorf</text>
    <circle class="map-city-hit" cx="107.71" cy="258.25" r="10"/>
    </a>
    <a class="map-city map-city--link" data-slug="frankfurt" href="standorte/frankfurt" role="listitem" aria-label="Frankfurt — Finanzwirtschaft, Entscheidungsdruck, hybride Begleitung">
    <circle class="map-ring" cx="171.22" cy="316.46" r="8"/>
    <circle class="map-dot" cx="171.22" cy="316.46" r="3.5"/>
    <text class="map-label" x="181.22" y="316.46" text-anchor="start">Frankfurt</text>
    <circle class="map-city-hit" cx="171.22" cy="316.46" r="14"/>
    </a>
    <a class="map-city map-city--link" data-slug="muenchen" href="standorte/muenchen" role="listitem" aria-label="München — Industrie, Konzerne, leistungsorientierte Führungsteams">
    <circle class="map-ring" cx="267.72" cy="419.44" r="8"/>
    <circle class="map-dot" cx="267.72" cy="419.44" r="3.5"/>
    <text class="map-label" x="257.72" y="419.44" text-anchor="end">München</text>
    <circle class="map-city-hit" cx="267.72" cy="419.44" r="14"/>
    </a>
    <a class="map-city map-city--link" data-slug="zuerich" href="standorte/zuerich" role="listitem" aria-label="Zürich — Internationaler Führungskontext">
    <circle class="map-dot" cx="166.55" cy="458.96" r="3.5"/>
    <text class="map-label" x="166.55" y="472.96" text-anchor="middle">Zürich</text>
    <circle class="map-city-hit" cx="166.55" cy="458.96" r="13"/>
    </a>
  </g>
</svg>
